<?xml version="1.0" standalone="no"?>
<!DOCTYPE svg PUBLIC "-//W3C//DTD SVG 20010904//EN"
 "http://www.w3.org/TR/2001/REC-SVG-20010904/DTD/svg10.dtd">
<svg version="1.0" xmlns="http://www.w3.org/2000/svg"
 width="488.000000pt" height="100.000000pt" viewBox="0 0 488.000000 100.000000"
 preserveAspectRatio="xMidYMid meet">
<metadata>
Created by potrace 1.13, written by Peter Selinger 2001-2015
</metadata>
<g transform="translate(0.000000,100.000000) scale(0.100000,-0.100000)"
fill="#000000" stroke="none">
<path d="M900 735 c0 -28 -4 -35 -20 -35 -17 0 -20 -7 -20 -45 0 -45 0 -45
-35 -45 l-35 0 0 -145 c0 -138 -1 -145 -20 -145 -17 0 -20 -7 -20 -40 l0 -40
80 0 80 0 0 40 c0 28 -4 40 -14 40 -17 0 -26 22 -26 63 0 61 14 62 58 3 47
-61 49 -66 27 -66 -11 0 -15 -11 -15 -40 l0 -40 85 0 85 0 0 40 c0 32 -4 40
-18 40 -19 0 -142 158 -142 182 0 21 129 188 145 188 11 0 15 11 13 43 l-1 42
-4 -37 c-3 -27 -9 -38 -21 -38 -9 0 -30 -20 -47 -45 -28 -42 -33 -45 -76 -45
-38 0 -48 -4 -59 -25 -17 -32 -30 -16 -30 37 0 46 8 68 26 68 10 0 14 12 14
40 0 22 -2 40 -5 40 -3 0 -5 -16 -5 -35z"/>
<path d="M1642 688 l-2 -78 -81 0 -80 0 3 -37 c3 -36 5 -38 41 -41 l37 -3 0
-103 0 -102 43 -42 c41 -40 45 -42 105 -42 l63 0 -3 38 -3 37 -57 3 -58 3 0
104 0 104 38 3 c35 3 37 5 37 38 0 33 -2 35 -37 38 l-37 3 -4 77 -3 77 -2 -77z"/>
<path d="M2292 688 l-2 -78 -75 0 -75 0 0 -39 c0 -39 1 -40 38 -43 l37 -3 3
-105 3 -105 36 -37 c35 -36 40 -38 101 -38 l63 0 -3 38 -3 37 -58 3 -58 3 3
102 3 102 38 3 c37 3 38 4 35 40 -3 35 -5 37 -40 40 l-37 3 -4 77 -3 77 -2
-77z"/>
<path d="M3292 688 l-2 -78 -75 0 -75 0 0 -39 c0 -39 1 -40 38 -43 l37 -3 3
-105 3 -105 36 -37 c35 -36 40 -38 101 -38 l63 0 -3 38 -3 37 -58 3 -58 3 3
102 3 102 38 3 c37 3 38 4 35 40 -3 35 -5 37 -40 40 l-37 3 -4 77 -3 77 -2
-77z"/>
<path d="M1877 682 c-10 -10 -17 -31 -17 -45 0 -24 -4 -27 -35 -27 -34 0 -35
-1 -35 -38 0 -31 7 -45 38 -75 36 -36 41 -37 108 -37 41 0 75 -5 82 -12 16
-16 16 -100 0 -116 -20 -20 -102 -15 -131 8 -14 12 -40 20 -61 20 l-36 0 0
-59 0 -60 137 0 c127 -1 138 1 160 21 21 20 23 30 23 118 l0 96 -38 37 c-37
36 -40 37 -110 37 -78 0 -92 10 -92 67 0 50 24 72 83 76 l52 3 -56 2 c-43 2
-60 -2 -72 -16z"/>
<path d="M1140 549 l0 -59 43 0 c31 0 49 6 62 20 24 26 95 28 118 2 27 -30 3
-42 -83 -42 -73 0 -77 -1 -108 -33 -29 -30 -32 -39 -32 -93 0 -50 4 -64 23
-82 22 -20 33 -22 160 -21 l137 0 0 159 0 158 -31 26 c-30 25 -34 26 -160 25
l-129 -2 0 -58z"/>
<path d="M2442 551 l3 -56 39 -3 c28 -2 47 3 68 18 36 26 105 25 122 -3 17
-27 -8 -37 -89 -37 -69 0 -72 -1 -108 -38 -33 -33 -37 -44 -37 -88 0 -42 5
-55 28 -77 28 -27 30 -27 165 -26 l137 0 0 155 0 156 -29 29 -29 29 -137 -1
-136 -1 3 -57z"/>
<path d="M2790 573 c0 -26 5 -36 20 -40 18 -5 20 -14 20 -109 0 -97 -1 -104
-20 -104 -17 0 -20 -7 -20 -40 l0 -40 80 0 80 0 0 40 c0 29 -4 40 -15 40 -20
0 -28 39 -23 112 6 83 25 98 124 98 l74 0 0 40 0 40 -160 -1 -160 0 0 -36z"/>
<path d="M3467 582 c-26 -28 -27 -31 -27 -158 0 -130 0 -130 28 -157 28 -27
30 -28 147 -25 115 3 118 4 138 30 14 18 18 34 13 52 -5 22 -12 26 -45 26 -22
0 -44 -6 -51 -15 -8 -10 -30 -15 -64 -15 -54 0 -76 12 -76 42 0 15 13 18 118
20 l117 3 3 83 c3 80 2 84 -27 112 -29 30 -31 30 -138 30 -107 0 -110 -1 -136
-28z"/>
<path d="M3790 573 c0 -26 5 -36 20 -40 18 -5 20 -14 20 -109 0 -97 -1 -104
-20 -104 -17 0 -20 -7 -20 -40 l0 -40 80 0 80 0 0 40 c0 29 -4 40 -15 40 -20
0 -28 39 -23 112 6 83 25 98 124 98 l74 0 0 40 0 40 -160 -1 -160 0 0 -36z"/>
</g>
</svg>
